<svg width="226" height="46" viewBox="0 0 226 46" fill="none" xmlns="http://www.w3.org/2000/svg">
<path d="M6.488 0.199997H32.728L16.408 45.064L0.0880001 0.199997H2.136L16.408 39.432L29.976 2.12H6.488V0.199997ZM33.4925 7.88H35.4125V45H33.4925V7.88ZM50.371 45H41.155V7.88H48.195C53.2297 7.88 57.027 8.75466 59.587 10.504C62.1897 12.2533 63.491 14.6427 63.491 17.672C63.491 21.2987 61.891 23.9227 58.691 25.544C61.0377 26.3547 62.787 27.5707 63.939 29.192C65.091 30.7707 65.667 32.6053 65.667 34.696C65.667 37.768 64.387 40.264 61.827 42.184C59.3097 44.0613 55.491 45 50.371 45ZM50.371 43.08C54.1257 43.08 57.283 42.3973 59.843 41.032C62.4457 39.6667 63.747 37.5547 63.747 34.696C63.747 33.3733 63.2563 31.944 62.275 30.408C61.2937 28.8293 59.779 27.6773 57.731 26.952L54.403 25.8L57.475 24.2C58.5417 23.6453 59.4803 22.8133 60.291 21.704C61.1443 20.552 61.571 19.208 61.571 17.672C61.571 14.984 60.291 13 57.731 11.72C55.171 10.44 51.9923 9.8 48.195 9.8H43.075V43.08H50.371ZM93.8995 41.224C91.5528 44.168 87.7128 45.64 82.3795 45.64C77.0462 45.64 73.2275 44.1253 70.9235 41.096C68.6195 38.0667 67.4675 33.1813 67.4675 26.44C67.4675 19.6987 68.6195 14.8133 70.9235 11.784C73.2275 8.75466 77.0462 7.24 82.3795 7.24C88.5662 7.24 92.7688 9.26666 94.9875 13.32L79.3075 26.44H76.2995L92.4915 12.936C90.6142 10.4187 87.2435 9.16 82.3795 9.16C80.2462 9.16 78.4542 9.39467 77.0035 9.864C75.5528 10.2907 74.2088 11.1227 72.9715 12.36C71.7768 13.5547 70.8808 15.3253 70.2835 17.672C69.6862 19.976 69.3875 22.8987 69.3875 26.44C69.3875 29.9813 69.6862 32.9253 70.2835 35.272C70.8808 37.576 71.7768 39.3467 72.9715 40.584C74.2088 41.7787 75.5528 42.6107 77.0035 43.08C78.4542 43.5067 80.2462 43.72 82.3795 43.72C87.2435 43.72 90.6142 42.4613 92.4915 39.944L93.8995 41.224ZM111.613 0.199997H137.853L121.533 45.064L105.213 0.199997H107.261L121.533 39.432L135.101 2.12H111.613V0.199997ZM138.618 7.88H140.538V45H138.618V7.88ZM156.072 7.112C161.363 7.112 165.117 8.28533 167.336 10.632L166.056 12.04C164.008 10.0347 160.765 9.032 156.328 9.032C149.672 9.032 146.344 11.6773 146.344 16.968C146.344 19.016 147.155 20.6587 148.776 21.896C150.397 23.0907 152.36 24.008 154.664 24.648C157.011 25.288 159.336 25.9707 161.64 26.696C163.987 27.3787 165.971 28.5093 167.592 30.088C169.213 31.624 170.024 33.6507 170.024 36.168C170.024 39.112 168.808 41.4587 166.376 43.208C163.944 44.9573 160.424 45.832 155.816 45.832C153.555 45.832 151.315 45.5333 149.096 44.936C146.92 44.3387 145.299 43.464 144.232 42.312L145.512 40.904C147.688 42.9093 151.037 43.912 155.56 43.912C159.699 43.912 162.813 43.144 164.904 41.608C167.037 40.072 168.104 38.28 168.104 36.232C168.104 34.0987 167.293 32.3707 165.672 31.048C164.051 29.7253 162.067 28.744 159.72 28.104C157.416 27.4213 155.091 26.7387 152.744 26.056C150.44 25.3307 148.477 24.2213 146.856 22.728C145.235 21.2347 144.424 19.272 144.424 16.84C144.424 13.5547 145.512 11.1227 147.688 9.544C149.907 7.92267 152.701 7.112 156.072 7.112ZM196.943 7.88V9.8H183.503V45H181.583V9.8H168.143V7.88H196.943ZM201.309 43.08H222.173L209.053 12.168L195.101 45H193.053L209.053 7.24L225.053 45H201.309V43.08Z" fill="#F6F6F6"/>
<path d="M6.488 0.199997V-1.3L4.988 0.199997H6.488ZM32.728 0.199997L34.1376 0.712773L32.728 -1.3V0.199997ZM16.408 45.064L14.9984 45.5768L17.8176 45.5768L16.408 45.064ZM0.0880001 0.199997V-1.3L-1.32163 0.712773L0.0880001 0.199997ZM2.136 0.199997L3.54562 -0.312802L2.136 -1.3V0.199997ZM16.408 39.432L14.9984 39.9448L17.8177 39.9446L16.408 39.432ZM29.976 2.12L31.3857 2.63261L29.976 0.619999V2.12ZM6.488 2.12H4.988L6.488 3.62V2.12ZM6.488 1.7H32.728V-1.3H6.488V1.7ZM31.3184 -0.312779L14.9984 44.5512L17.8176 45.5768L34.1376 0.712773L31.3184 -0.312779ZM17.8176 44.5512L1.49763 -0.312779L-1.32163 0.712773L14.9984 45.5768L17.8176 44.5512ZM0.0880001 1.7H2.136V-1.3H0.0880001V1.7ZM0.726377 0.712796L14.9984 39.9448L17.8176 38.9192L3.54562 -0.312802L0.726377 0.712796ZM17.8177 39.9446L31.3857 2.63261L28.5663 1.60738L14.9983 38.9194L17.8177 39.9446ZM29.976 0.619999H6.488V3.62H29.976V0.619999ZM7.988 2.12V0.199997H4.988V2.12H7.988ZM33.4925 7.88V6.38L31.9925 7.88H33.4925ZM35.4125 7.88H36.9125L35.4125 6.38V7.88ZM35.4125 45V46.5L36.9125 45H35.4125ZM33.4925 45H31.9925L33.4925 46.5V45ZM33.4925 9.38H35.4125V6.38H33.4925V9.38ZM33.9125 7.88V45H36.9125V7.88H33.9125ZM35.4125 43.5H33.4925V46.5H35.4125V43.5ZM34.9925 45V7.88H31.9925V45H34.9925ZM41.155 45H39.655L41.155 46.5V45ZM41.155 7.88V6.38L39.655 7.88H41.155ZM59.587 10.504L58.7407 11.7425L58.7502 11.7489L59.587 10.504ZM58.691 25.544L58.0131 24.2059L58.2012 26.9618L58.691 25.544ZM63.939 29.192L62.7162 30.0608L62.7273 30.0762L63.939 29.192ZM61.827 42.184L62.7237 43.3864L62.727 43.384L61.827 42.184ZM59.843 41.032L59.1462 39.7036L59.1371 39.7085L59.843 41.032ZM62.275 30.408L61.0011 31.1999L61.011 31.2156L62.275 30.408ZM57.731 26.952L58.2318 25.538L58.2217 25.5345L57.731 26.952ZM54.403 25.8L53.7101 24.4696L53.9123 27.2175L54.403 25.8ZM57.475 24.2L56.783 22.8692L56.7821 22.8696L57.475 24.2ZM60.291 21.704L59.0856 20.8111L59.0799 20.819L60.291 21.704ZM57.731 11.72L58.4018 10.3784L58.4018 10.3784L57.731 11.72ZM43.075 9.8V8.3L41.575 9.8H43.075ZM43.075 43.08H41.575L43.075 44.58V43.08ZM50.371 43.5H41.155V46.5H50.371V43.5ZM42.655 45V7.88H39.655V45H42.655ZM41.155 9.38H48.195V6.38H41.155V9.38ZM48.195 9.38C53.0993 9.38 56.5417 10.2398 58.7407 11.7425L60.4333 9.26553C57.5123 7.26955 53.3601 6.38 48.195 6.38V9.38ZM58.7502 11.7489C60.9558 13.2313 61.991 15.1629 61.991 17.672H64.991C64.991 14.1224 63.4235 11.2753 60.4238 9.25907L58.7502 11.7489ZM61.991 17.672C61.991 19.26 61.6428 20.5417 61.0103 21.5791C60.3784 22.6155 59.4065 23.4999 58.0131 24.2059L59.3689 26.8821C61.1755 25.9667 62.6036 24.7285 63.5717 23.1409C64.5392 21.5543 64.991 19.7107 64.991 17.672H61.991ZM58.2012 26.9618C60.3264 27.6959 61.786 28.7516 62.7162 30.0608L65.1618 28.3232C63.788 26.3897 61.7489 25.0134 59.1808 24.1262L58.2012 26.9618ZM62.7273 30.0762C63.6786 31.3798 64.167 32.8997 64.167 34.696H67.167C67.167 32.311 66.5034 30.1616 65.1507 28.3078L62.7273 30.0762ZM64.167 34.696C64.167 37.2733 63.1277 39.3335 60.927 40.984L62.727 43.384C65.6463 41.1945 67.167 38.2627 67.167 34.696H64.167ZM60.9303 40.9816C58.7899 42.5778 55.3549 43.5 50.371 43.5V46.5C55.6271 46.5 59.8295 45.5449 62.7237 43.3864L60.9303 40.9816ZM50.371 44.58C54.3016 44.58 57.7171 43.8658 60.5489 42.3555L59.1371 39.7085C56.8489 40.9289 53.9497 41.58 50.371 41.58V44.58ZM60.5398 42.3603C62.0353 41.5758 63.2319 40.5354 64.048 39.2109C64.8656 37.8841 65.247 36.3601 65.247 34.696H62.247C62.247 35.8906 61.9778 36.8519 61.494 37.6371C61.0087 38.4246 60.2534 39.1228 59.1462 39.7037L60.5398 42.3603ZM65.247 34.696C65.247 32.9981 64.6183 31.2896 63.539 29.6004L61.011 31.2156C61.8944 32.5984 62.247 33.7485 62.247 34.696H65.247ZM63.5489 29.6161C62.3586 27.7012 60.544 26.357 58.2318 25.5381L57.2302 28.3659C59.014 28.9977 60.2288 29.9575 61.0011 31.1999L63.5489 29.6161ZM58.2217 25.5345L54.8937 24.3825L53.9123 27.2175L57.2403 28.3695L58.2217 25.5345ZM55.0959 27.1304L58.1679 25.5304L56.7821 22.8696L53.7101 24.4696L55.0959 27.1304ZM58.167 25.5308C59.4663 24.8552 60.5746 23.8582 61.5021 22.589L59.0799 20.819C58.3861 21.7685 57.6171 22.4354 56.783 22.8692L58.167 25.5308ZM61.4963 22.5968C62.5551 21.1676 63.071 19.5051 63.071 17.672H60.071C60.071 18.9109 59.7336 19.9364 59.0857 20.8112L61.4963 22.5968ZM63.071 17.672C63.071 16.0806 62.6887 14.6215 61.8714 13.3548C61.0577 12.0935 59.8711 11.113 58.4018 10.3784L57.0602 13.0616C58.1509 13.607 58.8843 14.2585 59.3506 14.9812C59.8133 15.6985 60.071 16.5754 60.071 17.672H63.071ZM58.4018 10.3784C55.5769 8.9659 52.1523 8.3 48.195 8.3V11.3C51.8323 11.3 54.7651 11.9141 57.0602 13.0616L58.4018 10.3784ZM48.195 8.3H43.075V11.3H48.195V8.3ZM41.575 9.8V43.08H44.575V9.8H41.575ZM43.075 44.58H50.371V41.58H43.075V44.58ZM93.8995 41.224L95.0725 42.159L94.9085 40.1141L93.8995 41.224ZM70.9235 41.096L72.1174 40.1879L72.1174 40.1879L70.9235 41.096ZM70.9235 11.784L69.7296 10.8759L69.7296 10.8759L70.9235 11.784ZM94.9875 13.32L95.9501 14.4704L96.3033 12.5998L94.9875 13.32ZM79.3075 26.44V27.94L80.2701 27.5904L79.3075 26.44ZM76.2995 26.44L75.3388 25.288L76.2995 27.94V26.44ZM92.4915 12.936L93.4522 14.088L93.6939 12.0393L92.4915 12.936ZM77.0035 9.864L77.4267 11.303L77.4652 11.2912L77.0035 9.864ZM72.9715 12.36L71.9108 11.2993L71.9108 11.2993L72.9715 12.36ZM70.2835 17.672L71.7355 18.0484L71.7371 18.042L70.2835 17.672ZM70.2835 35.272L68.8298 35.642L68.8315 35.6484L70.2835 35.272ZM72.9715 40.584L71.8924 41.6259L71.9296 41.6631L72.9715 40.584ZM77.0035 43.08L76.5418 44.5072L76.5803 44.519L77.0035 43.08ZM92.4915 39.944L93.5005 38.8341L91.2891 39.0473L92.4915 39.944ZM92.7265 40.289C90.7691 42.7447 87.4558 44.14 82.3795 44.14V47.14C87.9699 47.14 92.3365 45.5913 95.0725 42.159L92.7265 40.289ZM82.3795 44.14C77.315 44.14 74.0355 42.7098 72.1174 40.1879L69.7296 42.0041C72.4195 45.5408 76.7773 47.14 82.3795 47.14V44.14ZM72.1174 40.1879C70.1147 37.5548 68.9675 33.0778 68.9675 26.44H65.9675C65.9675 33.2848 67.1243 38.5785 69.7296 42.0041L72.1174 40.1879ZM68.9675 26.44C68.9675 19.8022 70.1147 15.3252 72.1174 12.692L69.7296 10.8759C67.1243 14.3015 65.9675 19.5952 65.9675 26.44H68.9675ZM72.1174 12.692C74.0355 10.1702 77.315 8.74 82.3795 8.74V5.74C76.7773 5.74 72.4195 7.33916 69.7296 10.8759L72.1174 12.692ZM82.3795 8.74C88.2313 8.74 91.8048 10.6295 93.6717 14.0402L96.3033 12.5998C93.7328 7.90379 88.901 5.74 82.3795 5.74V8.74ZM94.0249 12.1696L78.3449 25.2896L80.2701 27.5904L95.9501 14.4704L94.0249 12.1696ZM79.3075 24.94H76.2995V27.94H79.3075V24.94ZM77.2602 27.592L93.4522 14.088L91.5308 11.784L75.3388 25.288L77.2602 27.592ZM93.6939 12.0393C91.4052 8.97031 87.4509 7.66 82.3795 7.66V10.66C87.0361 10.66 89.8231 11.867 91.2891 13.8327L93.6939 12.0393ZM82.3795 7.66C80.1469 7.66 78.1879 7.90425 76.5418 8.43683L77.4652 11.2912C78.7204 10.8851 80.3454 10.66 82.3795 10.66V7.66ZM76.5803 8.42495C74.8534 8.93286 73.2975 9.91264 71.9108 11.2993L74.0322 13.4207C75.1201 12.3327 76.2523 11.6485 77.4267 11.303L76.5803 8.42495ZM71.9108 11.2993C70.4602 12.75 69.4665 14.8009 68.8299 17.302L71.7371 18.042C72.2952 15.8498 73.0935 14.3594 74.0322 13.4207L71.9108 11.2993ZM68.8315 17.2956C68.1909 19.7665 67.8875 22.827 67.8875 26.44H70.8875C70.8875 22.9703 71.1814 20.1855 71.7355 18.0484L68.8315 17.2956ZM67.8875 26.44C67.8875 30.0543 68.1911 33.1328 68.8299 35.642L71.7371 34.902C71.1812 32.7179 70.8875 29.9084 70.8875 26.44H67.8875ZM68.8315 35.6484C69.47 38.1112 70.4623 40.1447 71.8924 41.6259L74.0506 39.5421C73.0914 38.5486 72.2917 37.0408 71.7355 34.8956L68.8315 35.6484ZM71.9296 41.6631C73.3101 42.996 74.8473 43.959 76.5418 44.5072L77.4652 41.6528C76.2583 41.2624 75.1076 40.5613 74.0134 39.5049L71.9296 41.6631ZM76.5803 44.519C78.2119 44.9989 80.1567 45.22 82.3795 45.22V42.22C80.3356 42.22 78.6965 42.0144 77.4267 41.641L76.5803 44.519ZM82.3795 45.22C87.4509 45.22 91.4052 43.9097 93.6939 40.8407L91.2891 39.0473C89.8231 41.013 87.0361 42.22 82.3795 42.22V45.22ZM91.4825 41.0539L92.8905 42.3339L94.9085 40.1141L93.5005 38.8341L91.4825 41.0539ZM111.613 0.199997V-1.3L110.113 0.199997H111.613ZM137.853 0.199997L139.263 0.712773L137.853 -1.3V0.199997ZM121.533 45.064L120.123 45.5768L122.943 45.5768L121.533 45.064ZM105.213 0.199997V-1.3L103.803 0.712773L105.213 0.199997ZM107.261 0.199997L108.671 -0.312802L107.261 -1.3V0.199997ZM121.533 39.432L120.123 39.9448L122.943 39.9446L121.533 39.432ZM135.101 2.12L136.511 2.63261L135.101 0.619999V2.12ZM111.613 2.12H110.113L111.613 3.62V2.12ZM111.613 1.7H137.853V-1.3H111.613V1.7ZM136.443 -0.312779L120.123 44.5512L122.943 45.5768L139.263 0.712773L136.443 -0.312779ZM122.943 44.5512L106.623 -0.312779L103.803 0.712773L120.123 45.5768L122.943 44.5512ZM105.213 1.7H107.261V-1.3H105.213V1.7ZM105.851 0.712796L120.123 39.9448L122.943 38.9192L108.671 -0.312802L105.851 0.712796ZM122.943 39.9446L136.511 2.63261L133.691 1.60738L120.123 38.9194L122.943 39.9446ZM135.101 0.619999H111.613V3.62H135.101V0.619999ZM113.113 2.12V0.199997H110.113V2.12H113.113ZM138.618 7.88V6.38L137.118 7.88H138.618ZM140.538 7.88H142.038L140.538 6.38V7.88ZM140.538 45V46.5L142.038 45H140.538ZM138.618 45H137.118L138.618 46.5V45ZM138.618 9.38H140.538V6.38H138.618V9.38ZM139.038 7.88V45H142.038V7.88H139.038ZM140.538 43.5H138.618V46.5H140.538V43.5ZM140.118 45V7.88H137.118V45H140.118ZM167.336 10.632L168.446 11.641L168.426 9.60148L167.336 10.632ZM166.056 12.04L165.007 13.1118L167.166 13.049L166.056 12.04ZM148.776 21.896L147.866 23.0884L147.886 23.1036L148.776 21.896ZM154.664 24.648L154.263 26.0933L154.269 26.0951L154.664 24.648ZM161.64 26.696L161.19 28.1268L161.221 28.1363L161.64 26.696ZM167.592 30.088L166.546 31.1627L166.56 31.1769L167.592 30.088ZM166.376 43.208L165.5 41.9903L165.5 41.9903L166.376 43.208ZM149.096 44.936L148.699 46.3825L148.706 46.3844L149.096 44.936ZM144.232 42.312L143.122 41.303L143.131 43.3311L144.232 42.312ZM145.512 40.904L146.529 39.801L144.402 39.895L145.512 40.904ZM164.904 41.608L164.028 40.3907L164.016 40.3992L164.904 41.608ZM165.672 31.048L166.62 29.8857L166.62 29.8857L165.672 31.048ZM159.72 28.104L159.294 29.5422L159.325 29.5511L159.72 28.104ZM152.744 26.056L152.294 27.4868L152.325 27.4963L152.744 26.056ZM146.856 22.728L145.84 23.8313L146.856 22.728ZM147.688 9.544L148.569 10.7581L148.573 10.7551L147.688 9.544ZM156.072 8.612C161.203 8.612 164.447 9.75975 166.246 11.6625L168.426 9.60148C165.788 6.81092 161.522 5.612 156.072 5.612V8.612ZM166.226 9.62299L164.946 11.031L167.166 13.049L168.446 11.641L166.226 9.62299ZM167.105 10.9682C164.657 8.57044 160.949 7.532 156.328 7.532V10.532C160.582 10.532 163.359 11.4989 165.007 13.1118L167.105 10.9682ZM156.328 7.532C152.841 7.532 149.949 8.21816 147.907 9.84176C145.798 11.5176 144.844 13.9883 144.844 16.968H147.844C147.844 14.6571 148.554 13.1597 149.773 12.1902C151.059 11.1685 153.159 10.532 156.328 10.532V7.532ZM144.844 16.968C144.844 19.4814 145.871 21.566 147.866 23.0884L149.686 20.7036C148.438 19.7514 147.844 18.5506 147.844 16.968H144.844ZM147.886 23.1036C149.679 24.4247 151.815 25.4134 154.263 26.0933L155.065 23.2027C152.905 22.6026 151.115 21.7566 149.666 20.6884L147.886 23.1036ZM154.269 26.0951C156.597 26.7301 158.904 27.4073 161.19 28.1268L162.09 25.2652C159.768 24.534 157.424 23.8459 155.059 23.2009L154.269 26.0951ZM161.221 28.1363C163.351 28.756 165.114 29.769 166.546 31.1627L168.638 29.0133C166.827 27.2497 164.622 26.0014 162.059 25.2557L161.221 28.1363ZM166.56 31.1769C167.843 32.3923 168.524 34.0049 168.524 36.168H171.524C171.524 33.2964 170.583 30.8557 168.624 28.9991L166.56 31.1769ZM168.524 36.168C168.524 38.6193 167.548 40.5169 165.5 41.9903L167.252 44.4257C170.068 42.4004 171.524 39.6047 171.524 36.168H168.524ZM165.5 41.9903C163.427 43.4813 160.268 44.332 155.816 44.332V47.332C160.58 47.332 164.461 46.4334 167.252 44.4257L165.5 41.9903ZM155.816 44.332C153.688 44.332 151.58 44.0512 149.486 43.4876L148.706 46.3844C151.05 47.0154 153.421 47.332 155.816 47.332V44.332ZM149.493 43.4895C147.475 42.9356 146.143 42.1686 145.333 41.2929L143.131 43.3311C144.454 44.7594 146.365 45.7418 148.699 46.3825L149.493 43.4895ZM145.342 43.321L146.622 41.913L144.402 39.895L143.122 41.303L145.342 43.321ZM144.495 42.007C147.063 44.3736 150.854 45.412 155.56 45.412V42.412C151.221 42.412 148.313 41.445 146.529 39.801L144.495 42.007ZM155.56 45.412C159.842 45.412 163.331 44.6247 165.792 42.8168L164.016 40.3992C162.295 41.6633 159.555 42.412 155.56 42.412V45.412ZM165.78 42.8253C168.182 41.0959 169.604 38.8962 169.604 36.232H166.604C166.604 37.6638 165.892 39.0481 164.028 40.3907L165.78 42.8253ZM169.604 36.232C169.604 33.6582 168.599 31.4996 166.62 29.8857L164.724 32.2103C165.988 33.2417 166.604 34.5391 166.604 36.232H169.604ZM166.62 29.8857C164.812 28.4106 162.631 27.3432 160.115 26.6569L159.325 29.5511C161.502 30.1448 163.289 31.0401 164.724 32.2103L166.62 29.8857ZM160.146 26.6658C157.84 25.9824 155.512 25.2991 153.163 24.6157L152.325 27.4963C154.669 28.1783 156.992 28.8602 159.294 29.5422L160.146 26.6658ZM153.194 24.6252C151.08 23.9597 149.316 22.9547 147.872 21.6247L145.84 23.8313C147.638 25.4879 149.8 26.7016 152.294 27.4868L153.194 24.6252ZM147.872 21.6247C146.593 20.4464 145.924 18.901 145.924 16.84H142.924C142.924 19.643 143.876 22.0229 145.84 23.8313L147.872 21.6247ZM145.924 16.84C145.924 13.9152 146.87 11.9909 148.569 10.7581L146.807 8.32987C144.154 10.2545 142.924 13.1941 142.924 16.84H145.924ZM148.573 10.7551C150.481 9.36061 152.946 8.612 156.072 8.612V5.612C152.457 5.612 149.332 6.48472 146.803 8.33291L148.573 10.7551ZM196.943 7.88H198.443L196.943 6.38V7.88ZM196.943 9.8V11.3L198.443 9.8H196.943ZM183.503 9.8V8.3L182.003 9.8H183.503ZM183.503 45V46.5L185.003 45H183.503ZM181.583 45H180.083L181.583 46.5V45ZM181.583 9.8H183.083L181.583 8.3V9.8ZM168.143 9.8H166.643L168.143 11.3V9.8ZM168.143 7.88V6.38L166.643 7.88H168.143ZM195.443 7.88V9.8H198.443V7.88H195.443ZM196.943 8.3H183.503V11.3H196.943V8.3ZM182.003 9.8V45H185.003V9.8H182.003ZM183.503 43.5H181.583V46.5H183.503V43.5ZM183.083 45V9.8H180.083V45H183.083ZM181.583 8.3H168.143V11.3H181.583V8.3ZM169.643 9.8V7.88H166.643V9.8H169.643ZM168.143 9.38H196.943V6.38H168.143V9.38ZM201.309 43.08V41.58L199.809 43.08H201.309ZM222.173 43.08V44.58L223.554 42.494L222.173 43.08ZM209.053 12.168L210.434 11.582L207.673 11.5813L209.053 12.168ZM195.101 45V46.5L196.482 45.5867L195.101 45ZM193.053 45L191.672 44.4148L193.053 46.5V45ZM209.053 7.24L210.435 6.65477L207.672 6.65477L209.053 7.24ZM225.053 45V46.5L226.435 44.4148L225.053 45ZM201.309 45H199.809L201.309 46.5V45ZM201.309 44.58H222.173V41.58H201.309V44.58ZM223.554 42.494L210.434 11.582L207.673 12.754L220.793 43.666L223.554 42.494ZM207.673 11.5813L193.721 44.4133L196.482 45.5867L210.434 12.7547L207.673 11.5813ZM195.101 43.5H193.053V46.5H195.101V43.5ZM194.435 45.5852L210.435 7.82522L207.672 6.65477L191.672 44.4148L194.435 45.5852ZM207.672 7.82522L223.672 45.5852L226.435 44.4148L210.435 6.65477L207.672 7.82522ZM225.053 43.5H201.309V46.5H225.053V43.5ZM202.809 45V43.08H199.809V45H202.809Z" fill="#F6F6F6"/>
</svg>
