<svg width="226" height="46" viewBox="0 0 226 46" fill="none" xmlns="http://www.w3.org/2000/svg">
<path d="M6.488 0.199997H32.728L16.408 45.064L0.0880001 0.199997H2.136L16.408 39.432L29.976 2.12H6.488V0.199997ZM33.4925 7.88H35.4125V45H33.4925V7.88ZM50.371 45H41.155V7.88H48.195C53.2297 7.88 57.027 8.75466 59.587 10.504C62.1897 12.2533 63.491 14.6427 63.491 17.672C63.491 21.2987 61.891 23.9227 58.691 25.544C61.0377 26.3547 62.787 27.5707 63.939 29.192C65.091 30.7707 65.667 32.6053 65.667 34.696C65.667 37.768 64.387 40.264 61.827 42.184C59.3097 44.0613 55.491 45 50.371 45ZM50.371 43.08C54.1257 43.08 57.283 42.3973 59.843 41.032C62.4457 39.6667 63.747 37.5547 63.747 34.696C63.747 33.3733 63.2563 31.944 62.275 30.408C61.2937 28.8293 59.779 27.6773 57.731 26.952L54.403 25.8L57.475 24.2C58.5417 23.6453 59.4803 22.8133 60.291 21.704C61.1443 20.552 61.571 19.208 61.571 17.672C61.571 14.984 60.291 13 57.731 11.72C55.171 10.44 51.9923 9.8 48.195 9.8H43.075V43.08H50.371ZM93.8995 41.224C91.5528 44.168 87.7128 45.64 82.3795 45.64C77.0462 45.64 73.2275 44.1253 70.9235 41.096C68.6195 38.0667 67.4675 33.1813 67.4675 26.44C67.4675 19.6987 68.6195 14.8133 70.9235 11.784C73.2275 8.75466 77.0462 7.24 82.3795 7.24C88.5662 7.24 92.7688 9.26666 94.9875 13.32L79.3075 26.44H76.2995L92.4915 12.936C90.6142 10.4187 87.2435 9.16 82.3795 9.16C80.2462 9.16 78.4542 9.39467 77.0035 9.864C75.5528 10.2907 74.2088 11.1227 72.9715 12.36C71.7768 13.5547 70.8808 15.3253 70.2835 17.672C69.6862 19.976 69.3875 22.8987 69.3875 26.44C69.3875 29.9813 69.6862 32.9253 70.2835 35.272C70.8808 37.576 71.7768 39.3467 72.9715 40.584C74.2088 41.7787 75.5528 42.6107 77.0035 43.08C78.4542 43.5067 80.2462 43.72 82.3795 43.72C87.2435 43.72 90.6142 42.4613 92.4915 39.944L93.8995 41.224ZM111.613 0.199997H137.853L121.533 45.064L105.213 0.199997H107.261L121.533 39.432L135.101 2.12H111.613V0.199997ZM138.618 7.88H140.538V45H138.618V7.88ZM156.072 7.112C161.363 7.112 165.117 8.28533 167.336 10.632L166.056 12.04C164.008 10.0347 160.765 9.032 156.328 9.032C149.672 9.032 146.344 11.6773 146.344 16.968C146.344 19.016 147.155 20.6587 148.776 21.896C150.397 23.0907 152.36 24.008 154.664 24.648C157.011 25.288 159.336 25.9707 161.64 26.696C163.987 27.3787 165.971 28.5093 167.592 30.088C169.213 31.624 170.024 33.6507 170.024 36.168C170.024 39.112 168.808 41.4587 166.376 43.208C163.944 44.9573 160.424 45.832 155.816 45.832C153.555 45.832 151.315 45.5333 149.096 44.936C146.92 44.3387 145.299 43.464 144.232 42.312L145.512 40.904C147.688 42.9093 151.037 43.912 155.56 43.912C159.699 43.912 162.813 43.144 164.904 41.608C167.037 40.072 168.104 38.28 168.104 36.232C168.104 34.0987 167.293 32.3707 165.672 31.048C164.051 29.7253 162.067 28.744 159.72 28.104C157.416 27.4213 155.091 26.7387 152.744 26.056C150.44 25.3307 148.477 24.2213 146.856 22.728C145.235 21.2347 144.424 19.272 144.424 16.84C144.424 13.5547 145.512 11.1227 147.688 9.544C149.907 7.92267 152.701 7.112 156.072 7.112ZM196.943 7.88V9.8H183.503V45H181.583V9.8H168.143V7.88H196.943ZM201.309 43.08H222.173L209.053 12.168L195.101 45H193.053L209.053 7.24L225.053 45H201.309V43.08Z" fill="white"/>
</svg>
