<svg width="54" height="76" viewBox="0 0 54 76" fill="none" xmlns="http://www.w3.org/2000/svg">
<mask id="path-1-outside-1_1205_11" maskUnits="userSpaceOnUse" x="-2" y="12" width="39" height="52" fill="black">
<rect fill="white" x="-2" y="12" width="39" height="52"/>
<path d="M7.488 15.2H33.728L17.408 60.064L1.088 15.2H3.136L17.408 54.432L30.976 17.12H7.488V15.2Z"/>
</mask>
<path d="M7.488 15.2H33.728L17.408 60.064L1.088 15.2H3.136L17.408 54.432L30.976 17.12H7.488V15.2Z" fill="#df6221"/>
<path d="M7.488 15.2V12.2C5.83115 12.2 4.488 13.5431 4.488 15.2H7.488ZM33.728 15.2L36.5473 16.2255C36.8818 15.3058 36.7467 14.2807 36.1853 13.479C35.6239 12.6774 34.7067 12.2 33.728 12.2V15.2ZM17.408 60.064L14.5887 61.0896C15.0199 62.275 16.1466 63.064 17.408 63.064C18.6694 63.064 19.7961 62.275 20.2273 61.0896L17.408 60.064ZM1.088 15.2V12.2C0.109302 12.2 -0.80787 12.6774 -1.3693 13.479C-1.93073 14.2807 -2.06583 15.3058 -1.73126 16.2255L1.088 15.2ZM3.136 15.2L5.95525 14.1744C5.52402 12.989 4.39738 12.2 3.136 12.2V15.2ZM17.408 54.432L14.5888 55.4576C15.02 56.643 16.1468 57.4321 17.4082 57.432C18.6696 57.4319 19.7963 56.6427 20.2274 55.4572L17.408 54.432ZM30.976 17.12L33.7954 18.1452C34.1298 17.2255 33.9946 16.2005 33.4332 15.3989C32.8718 14.5973 31.9546 14.12 30.976 14.12V17.12ZM7.488 17.12H4.488C4.488 18.7769 5.83115 20.12 7.488 20.12L7.488 17.12ZM7.488 18.2H33.728V12.2H7.488V18.2ZM30.9087 14.1744L14.5887 59.0384L20.2273 61.0896L36.5473 16.2255L30.9087 14.1744ZM20.2273 59.0384L3.90726 14.1744L-1.73126 16.2255L14.5887 61.0896L20.2273 59.0384ZM1.088 18.2H3.136V12.2H1.088V18.2ZM0.316754 16.2256L14.5888 55.4576L20.2272 53.4064L5.95525 14.1744L0.316754 16.2256ZM20.2274 55.4572L33.7954 18.1452L28.1566 16.0948L14.5886 53.4068L20.2274 55.4572ZM30.976 14.12H7.488V20.12H30.976V14.12ZM10.488 17.12V15.2H4.488V17.12H10.488Z" fill="#df6221" mask="url(#path-1-outside-1_1205_11)"/>
<mask id="path-3-outside-2_1205_11" maskUnits="userSpaceOnUse" x="17" y="11" width="39" height="52" fill="black">
<rect fill="white" x="17" y="11" width="39" height="52"/>
<path d="M26.488 14.2H52.728L36.408 59.064L20.088 14.2H22.136L36.408 53.432L49.976 16.12H26.488V14.2Z"/>
</mask>
<path d="M26.488 14.2H52.728L36.408 59.064L20.088 14.2H22.136L36.408 53.432L49.976 16.12H26.488V14.2Z" fill="black"/>
<path d="M26.488 14.2V11.2C24.8311 11.2 23.488 12.5431 23.488 14.2H26.488ZM52.728 14.2L55.5473 15.2255C55.8818 14.3058 55.7467 13.2807 55.1853 12.479C54.6239 11.6774 53.7067 11.2 52.728 11.2V14.2ZM36.408 59.064L33.5887 60.0896C34.0199 61.275 35.1466 62.064 36.408 62.064C37.6694 62.064 38.7961 61.275 39.2273 60.0896L36.408 59.064ZM20.088 14.2V11.2C19.1093 11.2 18.1921 11.6774 17.6307 12.479C17.0693 13.2807 16.9342 14.3058 17.2687 15.2255L20.088 14.2ZM22.136 14.2L24.9552 13.1744C24.524 11.989 23.3974 11.2 22.136 11.2V14.2ZM36.408 53.432L33.5888 54.4576C34.02 55.643 35.1468 56.4321 36.4082 56.432C37.6696 56.4319 38.7963 55.6427 39.2274 54.4572L36.408 53.432ZM49.976 16.12L52.7954 17.1452C53.1298 16.2255 52.9946 15.2005 52.4332 14.3989C51.8718 13.5973 50.9546 13.12 49.976 13.12V16.12ZM26.488 16.12H23.488C23.488 17.7769 24.8311 19.12 26.488 19.12V16.12ZM26.488 17.2H52.728V11.2H26.488V17.2ZM49.9087 13.1744L33.5887 58.0384L39.2273 60.0896L55.5473 15.2255L49.9087 13.1744ZM39.2273 58.0384L22.9073 13.1744L17.2687 15.2255L33.5887 60.0896L39.2273 58.0384ZM20.088 17.2H22.136V11.2H20.088V17.2ZM19.3168 15.2256L33.5888 54.4576L39.2272 52.4064L24.9552 13.1744L19.3168 15.2256ZM39.2274 54.4572L52.7954 17.1452L47.1566 15.0948L33.5886 52.4068L39.2274 54.4572ZM49.976 13.12H26.488V19.12H49.976V13.12ZM29.488 16.12V14.2H23.488V16.12H29.488Z" fill="black" mask="url(#path-3-outside-2_1205_11)"/>
</svg>
