<?xml version="1.0" encoding="utf-8"?>

<!-- Uploaded to: SVG Repo, www.svgrepo.com, Generator: SVG Repo Mixer Tools -->
<svg fill="#717485" height="800px" width="800px" version="1.1" id="Icons" xmlns="http://www.w3.org/2000/svg" xmlns:xlink="http://www.w3.org/1999/xlink" 
	 viewBox="0 0 32 32" xml:space="preserve">
<g>
	<path d="M23.5,7.9c-2.7,0-5.5,0.8-5.5,2.6c0,0.3,0.1,0.6,0.3,0.9C17.5,11.1,16.8,11,16,11s-1.5,0.1-2.3,0.3
		c0.2-0.3,0.3-0.5,0.3-0.9c0-1.8-2.8-2.6-5.5-2.6S3,8.7,3,10.4S5.8,13,8.5,13c0.7,0,1.4-0.1,2.1-0.2C8.4,14.5,7,17.1,7,20
		c0,2.6,1.1,5,2.9,6.6l-1.7,1.7c-0.4,0.4-0.4,1,0,1.4C8.5,29.9,8.7,30,9,30s0.5-0.1,0.7-0.3l1.9-1.9c1.3,0.7,2.8,1.2,4.4,1.2
		s3.1-0.4,4.4-1.2l1.9,1.9c0.2,0.2,0.5,0.3,0.7,0.3s0.5-0.1,0.7-0.3c0.4-0.4,0.4-1,0-1.4l-1.7-1.7c1.8-1.6,2.9-4,2.9-6.6
		c0-2.9-1.4-5.5-3.6-7.2c0.7,0.1,1.4,0.2,2.1,0.2c2.7,0,5.5-0.8,5.5-2.6S26.2,7.9,23.5,7.9z M15,22c0-1.7,1.3-3,3-3s3,1.3,3,3
		s-1.3,3-3,3S15,23.7,15,22z"/>
	<path d="M14,7.1V5.6C14,3.8,11.2,3,8.5,3S3,3.8,3,5.6v1.6c1.3-0.8,3.2-1.2,5.5-1.2S12.7,6.3,14,7.1z"/>
	<path d="M23.5,3C20.8,3,18,3.8,18,5.6v1.6c1.3-0.8,3.2-1.2,5.5-1.2s4.2,0.4,5.5,1.2V5.6C29,3.8,26.2,3,23.5,3z"/>
</g>
</svg>