<svg width="41" height="41" viewBox="0 0 41 41" fill="none" xmlns="http://www.w3.org/2000/svg">
    <g clip-path="url(#clip0_974_50)">
        <path d="M30.6477 30.6475C27.7274 32.8735 24.1716 34.1067 20.5002 34.1667C8.54183 34.1667 1.7085 20.5 1.7085 20.5C3.83347 16.5399 6.78077 13.0801 10.3527 10.3525M16.9127 7.24336C18.0886 6.96811 19.2925 6.83052 20.5002 6.83336C32.4585 6.83336 39.2918 20.5 39.2918 20.5C38.2548 22.44 37.0181 24.2664 35.6018 25.9496M24.1218 24.1217C23.6526 24.6252 23.0868 25.0291 22.4582 25.3092C21.8295 25.5893 21.1509 25.7399 20.4627 25.7521C19.7746 25.7642 19.0911 25.6376 18.4529 25.3799C17.8148 25.1221 17.2351 24.7384 16.7484 24.2518C16.2617 23.7651 15.8781 23.1854 15.6203 22.5473C15.3626 21.9091 15.236 21.2256 15.2481 20.5375C15.2603 19.8493 15.4109 19.1707 15.691 18.542C15.9711 17.9134 16.375 17.3475 16.8785 16.8784" stroke="black" stroke-width="2" stroke-linecap="round" stroke-linejoin="round"/>
        <path d="M1.7085 1.70831L39.2918 39.2916" stroke="black" stroke-width="2" stroke-linecap="round" stroke-linejoin="round"/>
    </g>
    <defs>
        <clipPath id="clip0_974_50">
            <rect width="41" height="41" fill="white"/>
        </clipPath>
    </defs>
</svg>
