<svg width="91" height="91" viewBox="0 0 91 91" fill="none" xmlns="http://www.w3.org/2000/svg">
    <circle cx="45.5" cy="45.5" r="45.5" fill="#df6221"/>
    <path d="M36.6668 59.6666H31.6668C30.7828 59.6666 29.9349 59.3154 29.3098 58.6903C28.6847 58.0652 28.3335 57.2173 28.3335 56.3333V44.6666C28.3335 43.7825 28.6847 42.9347 29.3098 42.3096C29.9349 41.6844 30.7828 41.3333 31.6668 41.3333H36.6668M48.3335 37.9999V31.3333C48.3335 30.0072 47.8067 28.7354 46.869 27.7977C45.9314 26.86 44.6596 26.3333 43.3335 26.3333L36.6668 41.3333V59.6666H55.4668C56.2707 59.6757 57.0508 59.3939 57.6633 58.8733C58.2759 58.3526 58.6796 57.6281 58.8002 56.8333L61.1002 41.8333C61.1727 41.3555 61.1405 40.8677 61.0057 40.4037C60.871 39.9396 60.637 39.5104 60.3199 39.1458C60.0029 38.7811 59.6103 38.4898 59.1695 38.292C58.7286 38.0941 58.25 37.9944 57.7668 37.9999H48.3335Z" stroke="white" stroke-width="2" stroke-linecap="round" stroke-linejoin="round"/>
</svg>
