<?xml version="1.0" encoding="utf-8"?>

<!-- Uploaded to: SVG Repo, www.svgrepo.com, Generator: SVG Repo Mixer Tools -->
<svg fill="#717485" height="800px" width="800px" version="1.1" id="Icons" xmlns="http://www.w3.org/2000/svg" xmlns:xlink="http://www.w3.org/1999/xlink" 
	 viewBox="0 0 32 32" xml:space="preserve">
<g>
	<path d="M29.3,7c-0.4-0.1-0.9,0.1-1.1,0.5C26.8,9.8,24.7,11,22,11h-8.5c-4,0-7.2,3.1-7.5,7H3c-0.6,0-1,0.4-1,1s0.4,1,1,1h3.2
		c0.7,3.4,3.7,6,7.4,6H22c2.2,0,4-1.8,4-4s-1.8-4-4-4h-8c-0.6,0-1,0.4-1,1s0.4,1,1,1h8c0.7,0,1.4,0.4,1.7,1H13c-1.1,0-2-0.9-2-2
		s0.9-2,2-2h9c2.7,0,4.8,1.2,6.1,3.5c0.2,0.4,0.7,0.6,1.1,0.5c0.4-0.1,0.7-0.5,0.7-1V8C30,7.5,29.7,7.2,29.3,7z"/>
	<path d="M12.6,9.9C12.7,10,12.9,10,13,10s0.3,0,0.4-0.1c0.1,0,0.2-0.1,0.3-0.2C13.9,9.5,14,9.3,14,9c0-0.3-0.1-0.5-0.3-0.7
		C13.4,8,13,7.9,12.6,8.1c-0.1,0-0.2,0.1-0.3,0.2C12.1,8.5,12,8.7,12,9c0,0.3,0.1,0.5,0.3,0.7C12.4,9.8,12.5,9.9,12.6,9.9z"/>
	<path d="M15.6,9.9c0.1,0,0.3,0.1,0.4,0.1c0.3,0,0.5-0.1,0.7-0.3C16.9,9.5,17,9.3,17,9c0-0.1,0-0.3-0.1-0.4c0-0.1-0.1-0.2-0.2-0.3
		c0,0-0.1-0.1-0.2-0.1c0,0-0.1-0.1-0.2-0.1c-0.1,0-0.1,0-0.2-0.1c-0.3-0.1-0.7,0-0.9,0.3c-0.1,0.1-0.2,0.2-0.2,0.3
		C15,8.7,15,8.9,15,9c0,0.3,0.1,0.5,0.3,0.7C15.4,9.8,15.5,9.9,15.6,9.9z"/>
	<path d="M18.6,9.9C18.7,10,18.9,10,19,10s0.3,0,0.4-0.1c0.1,0,0.2-0.1,0.3-0.2c0.1-0.1,0.2-0.2,0.2-0.3S20,9.1,20,9s0-0.3-0.1-0.4
		s-0.1-0.2-0.2-0.3c-0.4-0.4-1-0.4-1.4,0c-0.1,0.1-0.2,0.2-0.2,0.3C18,8.7,18,8.9,18,9c0,0.3,0.1,0.5,0.3,0.7
		C18.4,9.8,18.5,9.9,18.6,9.9z"/>
	<path d="M22,10c0.3,0,0.5-0.1,0.7-0.3C22.9,9.5,23,9.3,23,9c0-0.1,0-0.3-0.1-0.4c0-0.1-0.1-0.2-0.2-0.3c0,0-0.1-0.1-0.2-0.1
		c0,0-0.1-0.1-0.2-0.1c-0.1,0-0.1,0-0.2-0.1c-0.1,0-0.3,0-0.4,0c-0.1,0-0.1,0-0.2,0.1c-0.1,0-0.1,0-0.2,0.1c0,0-0.1,0.1-0.1,0.1
		c-0.1,0.1-0.2,0.2-0.2,0.3C21,8.7,21,8.9,21,9c0,0.3,0.1,0.5,0.3,0.7C21.5,9.9,21.7,10,22,10z"/>
</g>
</svg>