<svg width="91" height="91" viewBox="0 0 91 91" fill="none" xmlns="http://www.w3.org/2000/svg">
    <circle cx="45.5" cy="45.5" r="45.5" fill="#df6221"/>
    <path d="M55 39.3332C57.7614 39.3332 60 37.0947 60 34.3333C60 31.5718 57.7614 29.3333 55 29.3333C52.2386 29.3333 50 31.5718 50 34.3333C50 37.0947 52.2386 39.3332 55 39.3332Z" stroke="white" stroke-width="2" stroke-linecap="round" stroke-linejoin="round"/>
    <path d="M35 51C37.7614 51 40 48.7614 40 46C40 43.2386 37.7614 41 35 41C32.2386 41 30 43.2386 30 46C30 48.7614 32.2386 51 35 51Z" stroke="white" stroke-width="2" stroke-linecap="round" stroke-linejoin="round"/>
    <path d="M55 62.6667C57.7614 62.6667 60 60.4282 60 57.6667C60 54.9053 57.7614 52.6667 55 52.6667C52.2386 52.6667 50 54.9053 50 57.6667C50 60.4282 52.2386 62.6667 55 62.6667Z" stroke="white" stroke-width="2" stroke-linecap="round" stroke-linejoin="round"/>
    <path d="M39.3169 48.5166L50.7002 55.1499" stroke="white" stroke-width="2" stroke-linecap="round" stroke-linejoin="round"/>
    <path d="M50.6836 36.8501L39.3169 43.4834" stroke="white" stroke-width="2" stroke-linecap="round" stroke-linejoin="round"/>
</svg>
